<?xml version="1.0" encoding="UTF-8" standalone="no"?><svg xmlns="http://www.w3.org/2000/svg" xmlns:xlink="http://www.w3.org/1999/xlink" contentScriptType="application/ecmascript" contentStyleType="text/css" height="308px" preserveAspectRatio="none" style="width:3106px;height:308px;background:#FFFFFF;" version="1.1" viewBox="0 0 3106 308" width="3106px" zoomAndPan="magnify"><defs><filter height="300%" id="f1m1u5yj8vz2lc" width="300%" x="-1" y="-1"><feGaussianBlur result="blurOut" stdDeviation="2.0"/><feColorMatrix in="blurOut" result="blurOut2" type="matrix" values="0 0 0 0 0 0 0 0 0 0 0 0 0 0 0 0 0 0 .4 0"/><feOffset dx="4.0" dy="4.0" in="blurOut2" result="blurOut3"/><feBlend in="SourceGraphic" in2="blurOut3" mode="normal"/></filter></defs><g><text fill="#000000" font-family="sans-serif" font-size="18" lengthAdjust="spacing" textLength="626" x="1239" y="26.708">Algorithme d’orientation vis-à-vis de la certification professionnelle</text><ellipse cx="1534" cy="40.9531" fill="#000000" filter="url(#f1m1u5yj8vz2lc)" rx="10" ry="10" style="stroke:none;stroke-width:1.0;"/><polygon fill="#FEFECE" filter="url(#f1m1u5yj8vz2lc)" points="39,70.9531,146,70.9531,158,82.9531,146,94.9531,39,94.9531,27,82.9531,39,70.9531" style="stroke:#A80036;stroke-width:1.5;"/><text fill="#000000" font-family="sans-serif" font-size="11" lengthAdjust="spacing" textLength="21" x="96.5" y="105.1636">non</text><text fill="#000000" font-family="sans-serif" font-size="11" lengthAdjust="spacing" textLength="107" x="39" y="86.7612">SI &gt;=1 prestations</text><rect fill="#FEFECE" filter="url(#f1m1u5yj8vz2lc)" height="33.9688" rx="12.5" ry="12.5" style="stroke:#A80036;stroke-width:1.5;" width="163" x="11" y="126.6636"/><text fill="#000000" font-family="sans-serif" font-size="12" lengthAdjust="spacing" textLength="143" x="21" y="147.8022">INÉLIGIBILITÉ RS ET RNCP</text><ellipse cx="92.5" cy="206.6323" fill="#FFFFFF" filter="url(#f1m1u5yj8vz2lc)" rx="11" ry="11" style="stroke:#000000;stroke-width:1.0;"/><ellipse cx="92.5" cy="206.6323" fill="#000000" rx="6" ry="6" style="stroke:#7F7F7F;stroke-width:1.0;"/><polygon fill="#FEFECE" filter="url(#f1m1u5yj8vz2lc)" points="230.5,70.9531,300.5,70.9531,312.5,82.9531,300.5,94.9531,230.5,94.9531,218.5,82.9531,230.5,70.9531" style="stroke:#A80036;stroke-width:1.5;"/><text fill="#000000" font-family="sans-serif" font-size="11" lengthAdjust="spacing" textLength="21" x="269.5" y="105.1636">non</text><text fill="#000000" font-family="sans-serif" font-size="11" lengthAdjust="spacing" textLength="70" x="230.5" y="86.7612">SI data-dock</text><rect fill="#FEFECE" filter="url(#f1m1u5yj8vz2lc)" height="33.9688" rx="12.5" ry="12.5" style="stroke:#A80036;stroke-width:1.5;" width="163" x="184" y="126.6636"/><text fill="#000000" font-family="sans-serif" font-size="12" lengthAdjust="spacing" textLength="143" x="194" y="147.8022">INÉLIGIBILITÉ RS ET RNCP</text><ellipse cx="265.5" cy="206.6323" fill="#FFFFFF" filter="url(#f1m1u5yj8vz2lc)" rx="11" ry="11" style="stroke:#000000;stroke-width:1.0;"/><ellipse cx="265.5" cy="206.6323" fill="#000000" rx="6" ry="6" style="stroke:#7F7F7F;stroke-width:1.0;"/><polygon fill="#FEFECE" filter="url(#f1m1u5yj8vz2lc)" points="400,70.9531,477,70.9531,489,82.9531,477,94.9531,400,94.9531,388,82.9531,400,70.9531" style="stroke:#A80036;stroke-width:1.5;"/><text fill="#000000" font-family="sans-serif" font-size="11" lengthAdjust="spacing" textLength="21" x="442.5" y="105.1636">non</text><text fill="#000000" font-family="sans-serif" font-size="11" lengthAdjust="spacing" textLength="77" x="400" y="86.7612">SI &gt;=1 cibles</text><rect fill="#FEFECE" filter="url(#f1m1u5yj8vz2lc)" height="33.9688" rx="12.5" ry="12.5" style="stroke:#A80036;stroke-width:1.5;" width="163" x="357" y="126.6636"/><text fill="#000000" font-family="sans-serif" font-size="12" lengthAdjust="spacing" textLength="143" x="367" y="147.8022">INÉLIGIBILITÉ RS ET RNCP</text><ellipse cx="438.5" cy="206.6323" fill="#FFFFFF" filter="url(#f1m1u5yj8vz2lc)" rx="11" ry="11" style="stroke:#000000;stroke-width:1.0;"/><ellipse cx="438.5" cy="206.6323" fill="#000000" rx="6" ry="6" style="stroke:#7F7F7F;stroke-width:1.0;"/><polygon fill="#FEFECE" filter="url(#f1m1u5yj8vz2lc)" points="567.5,70.9531,655.5,70.9531,667.5,82.9531,655.5,94.9531,567.5,94.9531,555.5,82.9531,567.5,70.9531" style="stroke:#A80036;stroke-width:1.5;"/><text fill="#000000" font-family="sans-serif" font-size="11" lengthAdjust="spacing" textLength="21" x="615.5" y="105.1636">non</text><text fill="#000000" font-family="sans-serif" font-size="11" lengthAdjust="spacing" textLength="88" x="567.5" y="86.7612">SI &gt;=1 besoins</text><rect fill="#FEFECE" filter="url(#f1m1u5yj8vz2lc)" height="33.9688" rx="12.5" ry="12.5" style="stroke:#A80036;stroke-width:1.5;" width="163" x="530" y="126.6636"/><text fill="#000000" font-family="sans-serif" font-size="12" lengthAdjust="spacing" textLength="143" x="540" y="147.8022">INÉLIGIBILITÉ RS ET RNCP</text><ellipse cx="611.5" cy="206.6323" fill="#FFFFFF" filter="url(#f1m1u5yj8vz2lc)" rx="11" ry="11" style="stroke:#000000;stroke-width:1.0;"/><ellipse cx="611.5" cy="206.6323" fill="#000000" rx="6" ry="6" style="stroke:#7F7F7F;stroke-width:1.0;"/><polygon fill="#FEFECE" filter="url(#f1m1u5yj8vz2lc)" points="919,70.9531,1070,70.9531,1082,82.9531,1070,94.9531,919,94.9531,907,82.9531,919,70.9531" style="stroke:#A80036;stroke-width:1.5;"/><text fill="#000000" font-family="sans-serif" font-size="11" lengthAdjust="spacing" textLength="21" x="998.5" y="105.1636">non</text><text fill="#000000" font-family="sans-serif" font-size="11" lengthAdjust="spacing" textLength="151" x="919" y="86.7612">SI cibles CONTIENT métier</text><polygon fill="#FEFECE" filter="url(#f1m1u5yj8vz2lc)" points="722,151.6636,847,151.6636,859,163.6636,847,175.6636,722,175.6636,710,163.6636,722,151.6636" style="stroke:#A80036;stroke-width:1.5;"/><text fill="#000000" font-family="sans-serif" font-size="11" lengthAdjust="spacing" textLength="21" x="788.5" y="185.874">non</text><text fill="#000000" font-family="sans-serif" font-size="11" lengthAdjust="spacing" textLength="125" x="722" y="167.4717">SI durée &gt;=21heures</text><rect fill="#FEFECE" filter="url(#f1m1u5yj8vz2lc)" height="33.9688" rx="12.5" ry="12.5" style="stroke:#A80036;stroke-width:1.5;" width="163" x="703" y="208.4683"/><text fill="#000000" font-family="sans-serif" font-size="12" lengthAdjust="spacing" textLength="143" x="713" y="229.6069">INÉLIGIBILITÉ RS ET RNCP</text><ellipse cx="784.5" cy="280.2417" fill="#FFFFFF" filter="url(#f1m1u5yj8vz2lc)" rx="11" ry="11" style="stroke:#000000;stroke-width:1.0;"/><ellipse cx="784.5" cy="280.2417" fill="#000000" rx="6" ry="6" style="stroke:#7F7F7F;stroke-width:1.0;"/><polygon fill="#FEFECE" filter="url(#f1m1u5yj8vz2lc)" points="898,151.6636,1153,151.6636,1165,163.6636,1153,175.6636,898,175.6636,886,163.6636,898,151.6636" style="stroke:#A80036;stroke-width:1.5;"/><text fill="#000000" font-family="sans-serif" font-size="11" lengthAdjust="spacing" textLength="21" x="1029.5" y="185.874">non</text><text fill="#000000" font-family="sans-serif" font-size="11" lengthAdjust="spacing" textLength="255" x="898" y="167.4717">SI référentiel d’activités et de compétences</text><text fill="#000000" font-family="sans-serif" font-size="11" lengthAdjust="spacing" textLength="17" x="1165" y="161.0693">oui</text><rect fill="#FEFECE" filter="url(#f1m1u5yj8vz2lc)" height="33.9688" rx="12.5" ry="12.5" style="stroke:#A80036;stroke-width:1.5;" width="163" x="944" y="208.4683"/><text fill="#000000" font-family="sans-serif" font-size="12" lengthAdjust="spacing" textLength="143" x="954" y="229.6069">INÉLIGIBILITÉ RS ET RNCP</text><ellipse cx="1025.5" cy="280.2417" fill="#FFFFFF" filter="url(#f1m1u5yj8vz2lc)" rx="11" ry="11" style="stroke:#000000;stroke-width:1.0;"/><ellipse cx="1025.5" cy="280.2417" fill="#000000" rx="6" ry="6" style="stroke:#7F7F7F;stroke-width:1.0;"/><rect fill="#FEFECE" filter="url(#f1m1u5yj8vz2lc)" height="33.9688" rx="12.5" ry="12.5" style="stroke:#A80036;stroke-width:1.5;" width="101" x="1185" y="205.0659"/><text fill="#000000" font-family="sans-serif" font-size="12" lengthAdjust="spacing" textLength="81" x="1195" y="226.2046">ÉLIGIBILITÉ RS</text><ellipse cx="1235.5" cy="276.8394" fill="#FFFFFF" filter="url(#f1m1u5yj8vz2lc)" rx="11" ry="11" style="stroke:#000000;stroke-width:1.0;"/><ellipse cx="1235.5" cy="276.8394" fill="#000000" rx="6" ry="6" style="stroke:#7F7F7F;stroke-width:1.0;"/><polygon fill="#FEFECE" filter="url(#f1m1u5yj8vz2lc)" points="1519.5,70.9531,1655.5,70.9531,1667.5,82.9531,1655.5,94.9531,1519.5,94.9531,1507.5,82.9531,1519.5,70.9531" style="stroke:#A80036;stroke-width:1.5;"/><text fill="#000000" font-family="sans-serif" font-size="11" lengthAdjust="spacing" textLength="21" x="1591.5" y="105.1636">non</text><text fill="#000000" font-family="sans-serif" font-size="11" lengthAdjust="spacing" textLength="136" x="1519.5" y="86.7612">SI durée &gt;=150 heures</text><polygon fill="#FEFECE" filter="url(#f1m1u5yj8vz2lc)" points="1315,151.6636,1440,151.6636,1452,163.6636,1440,175.6636,1315,175.6636,1303,163.6636,1315,151.6636" style="stroke:#A80036;stroke-width:1.5;"/><text fill="#000000" font-family="sans-serif" font-size="11" lengthAdjust="spacing" textLength="21" x="1381.5" y="185.874">non</text><text fill="#000000" font-family="sans-serif" font-size="11" lengthAdjust="spacing" textLength="125" x="1315" y="167.4717">SI durée &gt;=21heures</text><rect fill="#FEFECE" filter="url(#f1m1u5yj8vz2lc)" height="33.9688" rx="12.5" ry="12.5" style="stroke:#A80036;stroke-width:1.5;" width="163" x="1296" y="208.4683"/><text fill="#000000" font-family="sans-serif" font-size="12" lengthAdjust="spacing" textLength="143" x="1306" y="229.6069">INÉLIGIBILITÉ RS ET RNCP</text><ellipse cx="1377.5" cy="280.2417" fill="#FFFFFF" filter="url(#f1m1u5yj8vz2lc)" rx="11" ry="11" style="stroke:#000000;stroke-width:1.0;"/><ellipse cx="1377.5" cy="280.2417" fill="#000000" rx="6" ry="6" style="stroke:#7F7F7F;stroke-width:1.0;"/><polygon fill="#FEFECE" filter="url(#f1m1u5yj8vz2lc)" points="1491,151.6636,1746,151.6636,1758,163.6636,1746,175.6636,1491,175.6636,1479,163.6636,1491,151.6636" style="stroke:#A80036;stroke-width:1.5;"/><text fill="#000000" font-family="sans-serif" font-size="11" lengthAdjust="spacing" textLength="21" x="1622.5" y="185.874">non</text><text fill="#000000" font-family="sans-serif" font-size="11" lengthAdjust="spacing" textLength="255" x="1491" y="167.4717">SI référentiel d’activités et de compétences</text><text fill="#000000" font-family="sans-serif" font-size="11" lengthAdjust="spacing" textLength="17" x="1758" y="161.0693">oui</text><rect fill="#FEFECE" filter="url(#f1m1u5yj8vz2lc)" height="33.9688" rx="12.5" ry="12.5" style="stroke:#A80036;stroke-width:1.5;" width="163" x="1537" y="208.4683"/><text fill="#000000" font-family="sans-serif" font-size="12" lengthAdjust="spacing" textLength="143" x="1547" y="229.6069">INÉLIGIBILITÉ RS ET RNCP</text><ellipse cx="1618.5" cy="280.2417" fill="#FFFFFF" filter="url(#f1m1u5yj8vz2lc)" rx="11" ry="11" style="stroke:#000000;stroke-width:1.0;"/><ellipse cx="1618.5" cy="280.2417" fill="#000000" rx="6" ry="6" style="stroke:#7F7F7F;stroke-width:1.0;"/><rect fill="#FEFECE" filter="url(#f1m1u5yj8vz2lc)" height="33.9688" rx="12.5" ry="12.5" style="stroke:#A80036;stroke-width:1.5;" width="101" x="1778" y="205.0659"/><text fill="#000000" font-family="sans-serif" font-size="12" lengthAdjust="spacing" textLength="81" x="1788" y="226.2046">ÉLIGIBILITÉ RS</text><ellipse cx="1828.5" cy="276.8394" fill="#FFFFFF" filter="url(#f1m1u5yj8vz2lc)" rx="11" ry="11" style="stroke:#000000;stroke-width:1.0;"/><ellipse cx="1828.5" cy="276.8394" fill="#000000" rx="6" ry="6" style="stroke:#7F7F7F;stroke-width:1.0;"/><polygon fill="#FEFECE" filter="url(#f1m1u5yj8vz2lc)" points="1911,70.9531,1997,70.9531,2009,82.9531,1997,94.9531,1911,94.9531,1899,82.9531,1911,70.9531" style="stroke:#A80036;stroke-width:1.5;"/><text fill="#000000" font-family="sans-serif" font-size="11" lengthAdjust="spacing" textLength="21" x="1958" y="105.1636">non</text><text fill="#000000" font-family="sans-serif" font-size="11" lengthAdjust="spacing" textLength="86" x="1911" y="86.7612">SI &gt;=2 promos</text><rect fill="#FEFECE" filter="url(#f1m1u5yj8vz2lc)" height="33.9688" rx="12.5" ry="12.5" style="stroke:#A80036;stroke-width:1.5;" width="126" x="1891" y="126.6636"/><text fill="#000000" font-family="sans-serif" font-size="12" lengthAdjust="spacing" textLength="106" x="1901" y="147.8022">INÉLIGIBILITÉ RNCP</text><ellipse cx="1954" cy="206.6323" fill="#FFFFFF" filter="url(#f1m1u5yj8vz2lc)" rx="11" ry="11" style="stroke:#000000;stroke-width:1.0;"/><ellipse cx="1954" cy="206.6323" fill="#000000" rx="6" ry="6" style="stroke:#7F7F7F;stroke-width:1.0;"/><polygon fill="#FEFECE" filter="url(#f1m1u5yj8vz2lc)" points="2049,70.9531,2304,70.9531,2316,82.9531,2304,94.9531,2049,94.9531,2037,82.9531,2049,70.9531" style="stroke:#A80036;stroke-width:1.5;"/><text fill="#000000" font-family="sans-serif" font-size="11" lengthAdjust="spacing" textLength="21" x="2180.5" y="105.1636">non</text><text fill="#000000" font-family="sans-serif" font-size="11" lengthAdjust="spacing" textLength="255" x="2049" y="86.7612">SI référentiel d’activités et de compétences</text><rect fill="#FEFECE" filter="url(#f1m1u5yj8vz2lc)" height="33.9688" rx="12.5" ry="12.5" style="stroke:#A80036;stroke-width:1.5;" width="126" x="2113.5" y="126.6636"/><text fill="#000000" font-family="sans-serif" font-size="12" lengthAdjust="spacing" textLength="106" x="2123.5" y="147.8022">INÉLIGIBILITÉ RNCP</text><ellipse cx="2176.5" cy="206.6323" fill="#FFFFFF" filter="url(#f1m1u5yj8vz2lc)" rx="11" ry="11" style="stroke:#000000;stroke-width:1.0;"/><ellipse cx="2176.5" cy="206.6323" fill="#000000" rx="6" ry="6" style="stroke:#7F7F7F;stroke-width:1.0;"/><polygon fill="#FEFECE" filter="url(#f1m1u5yj8vz2lc)" points="2370,70.9531,2408,70.9531,2420,82.9531,2408,94.9531,2370,94.9531,2358,82.9531,2370,70.9531" style="stroke:#A80036;stroke-width:1.5;"/><text fill="#000000" font-family="sans-serif" font-size="11" lengthAdjust="spacing" textLength="21" x="2393" y="105.1636">non</text><text fill="#000000" font-family="sans-serif" font-size="11" lengthAdjust="spacing" textLength="38" x="2370" y="86.7612">SI VAE</text><rect fill="#FEFECE" filter="url(#f1m1u5yj8vz2lc)" height="33.9688" rx="12.5" ry="12.5" style="stroke:#A80036;stroke-width:1.5;" width="126" x="2326" y="126.6636"/><text fill="#000000" font-family="sans-serif" font-size="12" lengthAdjust="spacing" textLength="106" x="2336" y="147.8022">INÉLIGIBILITÉ RNCP</text><ellipse cx="2389" cy="206.6323" fill="#FFFFFF" filter="url(#f1m1u5yj8vz2lc)" rx="11" ry="11" style="stroke:#000000;stroke-width:1.0;"/><ellipse cx="2389" cy="206.6323" fill="#000000" rx="6" ry="6" style="stroke:#7F7F7F;stroke-width:1.0;"/><polygon fill="#FEFECE" filter="url(#f1m1u5yj8vz2lc)" points="2484,70.9531,2942,70.9531,2954,82.9531,2942,94.9531,2484,94.9531,2472,82.9531,2484,70.9531" style="stroke:#A80036;stroke-width:1.5;"/><text fill="#000000" font-family="sans-serif" font-size="11" lengthAdjust="spacing" textLength="21" x="2717" y="105.1636">non</text><text fill="#000000" font-family="sans-serif" font-size="11" lengthAdjust="spacing" textLength="458" x="2484" y="86.7612">SI changement coefficient rémunération OU changement poste OU qualification</text><text fill="#000000" font-family="sans-serif" font-size="11" lengthAdjust="spacing" textLength="17" x="2954" y="80.3589">oui</text><rect fill="#FEFECE" filter="url(#f1m1u5yj8vz2lc)" height="33.9688" rx="12.5" ry="12.5" style="stroke:#A80036;stroke-width:1.5;" width="126" x="2650" y="126.6636"/><text fill="#000000" font-family="sans-serif" font-size="12" lengthAdjust="spacing" textLength="106" x="2660" y="147.8022">INÉLIGIBILITÉ RNCP</text><ellipse cx="2713" cy="206.6323" fill="#FFFFFF" filter="url(#f1m1u5yj8vz2lc)" rx="11" ry="11" style="stroke:#000000;stroke-width:1.0;"/><ellipse cx="2713" cy="206.6323" fill="#000000" rx="6" ry="6" style="stroke:#7F7F7F;stroke-width:1.0;"/><rect fill="#FEFECE" filter="url(#f1m1u5yj8vz2lc)" height="33.9688" rx="12.5" ry="12.5" style="stroke:#A80036;stroke-width:1.5;" width="115" x="2974" y="201.6636"/><text fill="#000000" font-family="sans-serif" font-size="12" lengthAdjust="spacing" textLength="95" x="2984" y="222.8022">ÉLIGIBILITÉ RNCP</text><ellipse cx="3031.5" cy="273.437" fill="#FFFFFF" filter="url(#f1m1u5yj8vz2lc)" rx="11" ry="11" style="stroke:#000000;stroke-width:1.0;"/><ellipse cx="3031.5" cy="273.437" fill="#000000" rx="6" ry="6" style="stroke:#7F7F7F;stroke-width:1.0;"/><line style="stroke:#A80036;stroke-width:1.5;" x1="92.5" x2="92.5" y1="160.6323" y2="195.6323"/><polygon fill="#A80036" points="88.5,185.6323,92.5,195.6323,96.5,185.6323,92.5,189.6323" style="stroke:#A80036;stroke-width:1.0;"/><line style="stroke:#A80036;stroke-width:1.5;" x1="265.5" x2="265.5" y1="160.6323" y2="195.6323"/><polygon fill="#A80036" points="261.5,185.6323,265.5,195.6323,269.5,185.6323,265.5,189.6323" style="stroke:#A80036;stroke-width:1.0;"/><line style="stroke:#A80036;stroke-width:1.5;" x1="438.5" x2="438.5" y1="160.6323" y2="195.6323"/><polygon fill="#A80036" points="434.5,185.6323,438.5,195.6323,442.5,185.6323,438.5,189.6323" style="stroke:#A80036;stroke-width:1.0;"/><line style="stroke:#A80036;stroke-width:1.5;" x1="611.5" x2="611.5" y1="160.6323" y2="195.6323"/><polygon fill="#A80036" points="607.5,185.6323,611.5,195.6323,615.5,185.6323,611.5,189.6323" style="stroke:#A80036;stroke-width:1.0;"/><line style="stroke:#A80036;stroke-width:1.5;" x1="784.5" x2="784.5" y1="242.437" y2="269.2417"/><polygon fill="#A80036" points="780.5,259.2417,784.5,269.2417,788.5,259.2417,784.5,263.2417" style="stroke:#A80036;stroke-width:1.0;"/><line style="stroke:#A80036;stroke-width:1.5;" x1="1025.5" x2="1025.5" y1="242.437" y2="269.2417"/><polygon fill="#A80036" points="1021.5,259.2417,1025.5,269.2417,1029.5,259.2417,1025.5,263.2417" style="stroke:#A80036;stroke-width:1.0;"/><line style="stroke:#A80036;stroke-width:1.5;" x1="1235.5" x2="1235.5" y1="239.0347" y2="265.8394"/><polygon fill="#A80036" points="1231.5,255.8394,1235.5,265.8394,1239.5,255.8394,1235.5,259.8394" style="stroke:#A80036;stroke-width:1.0;"/><line style="stroke:#A80036;stroke-width:1.5;" x1="784.5" x2="784.5" y1="175.6636" y2="208.4683"/><polygon fill="#A80036" points="780.5,198.4683,784.5,208.4683,788.5,198.4683,784.5,202.4683" style="stroke:#A80036;stroke-width:1.0;"/><line style="stroke:#A80036;stroke-width:1.5;" x1="1025.5" x2="1025.5" y1="175.6636" y2="208.4683"/><polygon fill="#A80036" points="1021.5,198.4683,1025.5,208.4683,1029.5,198.4683,1025.5,202.4683" style="stroke:#A80036;stroke-width:1.0;"/><line style="stroke:#A80036;stroke-width:1.5;" x1="859" x2="886" y1="163.6636" y2="163.6636"/><polygon fill="#A80036" points="876,159.6636,886,163.6636,876,167.6636,880,163.6636" style="stroke:#A80036;stroke-width:1.0;"/><line style="stroke:#A80036;stroke-width:1.5;" x1="994.5" x2="994.5" y1="94.9531" y2="126.6636"/><line style="stroke:#A80036;stroke-width:1.5;" x1="994.5" x2="784.5" y1="126.6636" y2="126.6636"/><line style="stroke:#A80036;stroke-width:1.5;" x1="784.5" x2="784.5" y1="126.6636" y2="151.6636"/><polygon fill="#A80036" points="780.5,141.6636,784.5,151.6636,788.5,141.6636,784.5,145.6636" style="stroke:#A80036;stroke-width:1.0;"/><line style="stroke:#A80036;stroke-width:1.5;" x1="1165" x2="1235.5" y1="163.6636" y2="163.6636"/><line style="stroke:#A80036;stroke-width:1.5;" x1="1235.5" x2="1235.5" y1="163.6636" y2="205.0659"/><polygon fill="#A80036" points="1231.5,195.0659,1235.5,205.0659,1239.5,195.0659,1235.5,199.0659" style="stroke:#A80036;stroke-width:1.0;"/><line style="stroke:#A80036;stroke-width:1.5;" x1="1377.5" x2="1377.5" y1="242.437" y2="269.2417"/><polygon fill="#A80036" points="1373.5,259.2417,1377.5,269.2417,1381.5,259.2417,1377.5,263.2417" style="stroke:#A80036;stroke-width:1.0;"/><line style="stroke:#A80036;stroke-width:1.5;" x1="1618.5" x2="1618.5" y1="242.437" y2="269.2417"/><polygon fill="#A80036" points="1614.5,259.2417,1618.5,269.2417,1622.5,259.2417,1618.5,263.2417" style="stroke:#A80036;stroke-width:1.0;"/><line style="stroke:#A80036;stroke-width:1.5;" x1="1828.5" x2="1828.5" y1="239.0347" y2="265.8394"/><polygon fill="#A80036" points="1824.5,255.8394,1828.5,265.8394,1832.5,255.8394,1828.5,259.8394" style="stroke:#A80036;stroke-width:1.0;"/><line style="stroke:#A80036;stroke-width:1.5;" x1="1377.5" x2="1377.5" y1="175.6636" y2="208.4683"/><polygon fill="#A80036" points="1373.5,198.4683,1377.5,208.4683,1381.5,198.4683,1377.5,202.4683" style="stroke:#A80036;stroke-width:1.0;"/><line style="stroke:#A80036;stroke-width:1.5;" x1="1618.5" x2="1618.5" y1="175.6636" y2="208.4683"/><polygon fill="#A80036" points="1614.5,198.4683,1618.5,208.4683,1622.5,198.4683,1618.5,202.4683" style="stroke:#A80036;stroke-width:1.0;"/><line style="stroke:#A80036;stroke-width:1.5;" x1="1452" x2="1479" y1="163.6636" y2="163.6636"/><polygon fill="#A80036" points="1469,159.6636,1479,163.6636,1469,167.6636,1473,163.6636" style="stroke:#A80036;stroke-width:1.0;"/><line style="stroke:#A80036;stroke-width:1.5;" x1="1587.5" x2="1587.5" y1="94.9531" y2="126.6636"/><line style="stroke:#A80036;stroke-width:1.5;" x1="1587.5" x2="1377.5" y1="126.6636" y2="126.6636"/><line style="stroke:#A80036;stroke-width:1.5;" x1="1377.5" x2="1377.5" y1="126.6636" y2="151.6636"/><polygon fill="#A80036" points="1373.5,141.6636,1377.5,151.6636,1381.5,141.6636,1377.5,145.6636" style="stroke:#A80036;stroke-width:1.0;"/><line style="stroke:#A80036;stroke-width:1.5;" x1="1758" x2="1828.5" y1="163.6636" y2="163.6636"/><line style="stroke:#A80036;stroke-width:1.5;" x1="1828.5" x2="1828.5" y1="163.6636" y2="205.0659"/><polygon fill="#A80036" points="1824.5,195.0659,1828.5,205.0659,1832.5,195.0659,1828.5,199.0659" style="stroke:#A80036;stroke-width:1.0;"/><line style="stroke:#A80036;stroke-width:1.5;" x1="1954" x2="1954" y1="160.6323" y2="195.6323"/><polygon fill="#A80036" points="1950,185.6323,1954,195.6323,1958,185.6323,1954,189.6323" style="stroke:#A80036;stroke-width:1.0;"/><line style="stroke:#A80036;stroke-width:1.5;" x1="2176.5" x2="2176.5" y1="160.6323" y2="195.6323"/><polygon fill="#A80036" points="2172.5,185.6323,2176.5,195.6323,2180.5,185.6323,2176.5,189.6323" style="stroke:#A80036;stroke-width:1.0;"/><line style="stroke:#A80036;stroke-width:1.5;" x1="2389" x2="2389" y1="160.6323" y2="195.6323"/><polygon fill="#A80036" points="2385,185.6323,2389,195.6323,2393,185.6323,2389,189.6323" style="stroke:#A80036;stroke-width:1.0;"/><line style="stroke:#A80036;stroke-width:1.5;" x1="2713" x2="2713" y1="160.6323" y2="195.6323"/><polygon fill="#A80036" points="2709,185.6323,2713,195.6323,2717,185.6323,2713,189.6323" style="stroke:#A80036;stroke-width:1.0;"/><line style="stroke:#A80036;stroke-width:1.5;" x1="3031.5" x2="3031.5" y1="235.6323" y2="262.437"/><polygon fill="#A80036" points="3027.5,252.437,3031.5,262.437,3035.5,252.437,3031.5,256.437" style="stroke:#A80036;stroke-width:1.0;"/><line style="stroke:#A80036;stroke-width:1.5;" x1="92.5" x2="92.5" y1="94.9531" y2="126.6636"/><polygon fill="#A80036" points="88.5,116.6636,92.5,126.6636,96.5,116.6636,92.5,120.6636" style="stroke:#A80036;stroke-width:1.0;"/><line style="stroke:#A80036;stroke-width:1.5;" x1="265.5" x2="265.5" y1="94.9531" y2="126.6636"/><polygon fill="#A80036" points="261.5,116.6636,265.5,126.6636,269.5,116.6636,265.5,120.6636" style="stroke:#A80036;stroke-width:1.0;"/><line style="stroke:#A80036;stroke-width:1.5;" x1="438.5" x2="438.5" y1="94.9531" y2="126.6636"/><polygon fill="#A80036" points="434.5,116.6636,438.5,126.6636,442.5,116.6636,438.5,120.6636" style="stroke:#A80036;stroke-width:1.0;"/><line style="stroke:#A80036;stroke-width:1.5;" x1="611.5" x2="611.5" y1="94.9531" y2="126.6636"/><polygon fill="#A80036" points="607.5,116.6636,611.5,126.6636,615.5,116.6636,611.5,120.6636" style="stroke:#A80036;stroke-width:1.0;"/><line style="stroke:#A80036;stroke-width:1.5;" x1="1954" x2="1954" y1="94.9531" y2="126.6636"/><polygon fill="#A80036" points="1950,116.6636,1954,126.6636,1958,116.6636,1954,120.6636" style="stroke:#A80036;stroke-width:1.0;"/><line style="stroke:#A80036;stroke-width:1.5;" x1="2176.5" x2="2176.5" y1="94.9531" y2="126.6636"/><polygon fill="#A80036" points="2172.5,116.6636,2176.5,126.6636,2180.5,116.6636,2176.5,120.6636" style="stroke:#A80036;stroke-width:1.0;"/><line style="stroke:#A80036;stroke-width:1.5;" x1="2389" x2="2389" y1="94.9531" y2="126.6636"/><polygon fill="#A80036" points="2385,116.6636,2389,126.6636,2393,116.6636,2389,120.6636" style="stroke:#A80036;stroke-width:1.0;"/><line style="stroke:#A80036;stroke-width:1.5;" x1="2713" x2="2713" y1="94.9531" y2="126.6636"/><polygon fill="#A80036" points="2709,116.6636,2713,126.6636,2717,116.6636,2713,120.6636" style="stroke:#A80036;stroke-width:1.0;"/><line style="stroke:#A80036;stroke-width:1.5;" x1="158" x2="218.5" y1="82.9531" y2="82.9531"/><polygon fill="#A80036" points="208.5,78.9531,218.5,82.9531,208.5,86.9531,212.5,82.9531" style="stroke:#A80036;stroke-width:1.0;"/><line style="stroke:#A80036;stroke-width:1.5;" x1="312.5" x2="388" y1="82.9531" y2="82.9531"/><polygon fill="#A80036" points="378,78.9531,388,82.9531,378,86.9531,382,82.9531" style="stroke:#A80036;stroke-width:1.0;"/><line style="stroke:#A80036;stroke-width:1.5;" x1="489" x2="555.5" y1="82.9531" y2="82.9531"/><polygon fill="#A80036" points="545.5,78.9531,555.5,82.9531,545.5,86.9531,549.5,82.9531" style="stroke:#A80036;stroke-width:1.0;"/><line style="stroke:#A80036;stroke-width:1.5;" x1="667.5" x2="907" y1="82.9531" y2="82.9531"/><polygon fill="#A80036" points="897,78.9531,907,82.9531,897,86.9531,901,82.9531" style="stroke:#A80036;stroke-width:1.0;"/><line style="stroke:#A80036;stroke-width:1.5;" x1="1082" x2="1507.5" y1="82.9531" y2="82.9531"/><polygon fill="#A80036" points="1497.5,78.9531,1507.5,82.9531,1497.5,86.9531,1501.5,82.9531" style="stroke:#A80036;stroke-width:1.0;"/><line style="stroke:#A80036;stroke-width:1.5;" x1="1667.5" x2="1899" y1="82.9531" y2="82.9531"/><polygon fill="#A80036" points="1889,78.9531,1899,82.9531,1889,86.9531,1893,82.9531" style="stroke:#A80036;stroke-width:1.0;"/><line style="stroke:#A80036;stroke-width:1.5;" x1="2009" x2="2037" y1="82.9531" y2="82.9531"/><polygon fill="#A80036" points="2027,78.9531,2037,82.9531,2027,86.9531,2031,82.9531" style="stroke:#A80036;stroke-width:1.0;"/><line style="stroke:#A80036;stroke-width:1.5;" x1="2316" x2="2358" y1="82.9531" y2="82.9531"/><polygon fill="#A80036" points="2348,78.9531,2358,82.9531,2348,86.9531,2352,82.9531" style="stroke:#A80036;stroke-width:1.0;"/><line style="stroke:#A80036;stroke-width:1.5;" x1="2420" x2="2472" y1="82.9531" y2="82.9531"/><polygon fill="#A80036" points="2462,78.9531,2472,82.9531,2462,86.9531,2466,82.9531" style="stroke:#A80036;stroke-width:1.0;"/><line style="stroke:#A80036;stroke-width:1.5;" x1="1534" x2="1534" y1="50.9531" y2="55.9531"/><line style="stroke:#A80036;stroke-width:1.5;" x1="1534" x2="92.5" y1="55.9531" y2="55.9531"/><line style="stroke:#A80036;stroke-width:1.5;" x1="92.5" x2="92.5" y1="55.9531" y2="70.9531"/><polygon fill="#A80036" points="88.5,60.9531,92.5,70.9531,96.5,60.9531,92.5,64.9531" style="stroke:#A80036;stroke-width:1.0;"/><line style="stroke:#A80036;stroke-width:1.5;" x1="2954" x2="3031.5" y1="82.9531" y2="82.9531"/><line style="stroke:#A80036;stroke-width:1.5;" x1="3031.5" x2="3031.5" y1="82.9531" y2="201.6636"/><polygon fill="#A80036" points="3027.5,191.6636,3031.5,201.6636,3035.5,191.6636,3031.5,195.6636" style="stroke:#A80036;stroke-width:1.0;"/><!--MD5=[35d7bb615df70ef0bd4c58308fb797df]
@startuml
title Algorithme d’orientation vis-à-vis de la certification professionnelle

start

if (SI >=1 prestations) then (non)
   :INÉLIGIBILITÉ RS ET RNCP;
   stop

elseif (SI data-dock) then (non)
   :INÉLIGIBILITÉ RS ET RNCP;
   stop

elseif (SI >=1 cibles) then (non)
   :INÉLIGIBILITÉ RS ET RNCP;
   stop
elseif (SI >=1 besoins) then (non)
   :INÉLIGIBILITÉ RS ET RNCP;
   stop
elseif (SI cibles CONTIENT métier) then (non)
if(SI durée >=21heures) then (non)
   :INÉLIGIBILITÉ RS ET RNCP;
   stop
elseif (SI référentiel d’activités et de compétences) then (non)
:INÉLIGIBILITÉ RS ET RNCP;
   	   stop
else (oui)
   :ÉLIGIBILITÉ RS;
   stop
endif
elseif (SI durée >=150 heures) then (non)
if(SI durée >=21heures) then (non)
   :INÉLIGIBILITÉ RS ET RNCP;
   stop
elseif (SI référentiel d’activités et de compétences) then (non)
:INÉLIGIBILITÉ RS ET RNCP;
   	   stop
else (oui)
   :ÉLIGIBILITÉ RS;
   stop
endif
elseif(SI >=2 promos) then (non)
:INÉLIGIBILITÉ RNCP;
stop
elseif (SI référentiel d’activités et de compétences) then (non)
:INÉLIGIBILITÉ RNCP;
stop
elseif (SI VAE) then (non)
:INÉLIGIBILITÉ RNCP;
stop
elseif (SI changement coefficient rémunération OU changement poste OU qualification) then (non)
:INÉLIGIBILITÉ RNCP;
stop
else (oui)
   :ÉLIGIBILITÉ RNCP;
   stop
endif
@enduml

PlantUML version 1.2021.7beta2(Unknown compile time)
(GPL source distribution)
Java Runtime: Java(TM) SE Runtime Environment
JVM: Java HotSpot(TM) 64-Bit Server VM
Default Encoding: UTF-8
Language: en
Country: US
--></g></svg>